Genre:Horror | Thriller
Language:English  http://www.imdb.com/title/tt1148200/
Source:NTSC.DVDR-KART3LDVD


Format : MPEG-4
Format profile : Base Media
Codec ID : isom
File size : 808 MiB
Duration : 1h 29mn
Overall bit rate : 1 269 Kbps
Movie name : Chain.Letter.UNRATED.2010.DvDRip.x264.Feel-Free


Video
Format settings, CABAC : Yes
Format settings, ReFrames : 4 frames
Codec ID : avc1
Codec ID/Info : Advanced Video Coding
Duration : 1h 29mn
Bit rate mode : Variable
Bit rate : 879 Kbps
Width : 720 pixels
Height : 384 pixels
Display aspect ratio : 1.875
Frame rate mode : Constant
Frame rate : 29.970 fps
Color space : YUV
Chroma subsampling : 4:2:0
Bit depth : 8 bits
Scan type : Progressive
Bits/(Pixel*Frame) : 0.106
Stream size : 563 MiB (70%)
Writing library : x264
E
Audio
ID : 2
Format : AAC
Format/Info : Advanced Audio Codec
Format version : Version 4
Format profile : LC
Codec ID : 40
Duration : 1h 29mn
Bit rate mode : Variable
Bit rate : 384 Kbps
Channel(s) : 6 channels
Channel positions : Front: L C R, Side: L R, LFE
Sampling rate : 48.0 KHz
Stream size : 240 MiB (30%)


Plot:
A maniac murders teens when they refuse to forward chain mail

 
http://shareimage.org/images/e7nvlxpj0zm3qd2tq6.png 
http://shareimage.org/images/qmdedw9p6ondadwp0wtw.png 
http://shareimage.org/images/zue1ohuqkvkm3unl0uwa.png 
http://shareimage.org/images/eool8kbl3hsuiwdenftk.png 
http://shareimage.org/images/od5m7rcm52ufwo6juy.png